<svg xmlns="http://www.w3.org/2000/svg" viewBox="0 0 200 200" fill="none"><path d="M65.55 108.533c-4.602 30.537-41.413 39.321-41.413 53.962 0 7.738 7.32 7.32 7.32 15.896h-17.15v-28.45c0-15.478 11.923-30.956 11.923-49.987l28.86-1.667 10.46 10.246z" fill="#3C4043" stroke="#131314" stroke-linecap="round" stroke-linejoin="round"/><path d="M120.269 43.017c-1.641 0-4.232 1.985-6.852 4.76a260.65 260.65 0 0 0 8.222 2.536c.654-3.15 1.046-7.296-1.37-7.296z" fill="#fff" stroke="#131314" stroke-linecap="round" stroke-linejoin="round"/><path d="M150.437 78.952c1.408-3.015 1.482-5.981-3.018-7.593 0 0-1.839 5.132 3.018 7.593z" fill="#3C4043" stroke="#131314" stroke-linecap="round" stroke-linejoin="round"/><path d="M146.719 54.364c21.02 0 27.189-32.837 15.896-32.837-11.292 0-10.981 18.519-21.02 18.519-14.745 0-38.582-12.235-61.17-12.235-30.12 0-60.87 24.051-60.87 67.765 0 32.931 21.64 82.814 21.64 82.814h19.444c0-7.687-6.274-6.431-9.413-13.961l-9.396-25.098c7.843-7.222 14.744-18.457 11.137-34.196 6.589 10.196 18.981 11.137 29.176 26.824l32.628 46.431H130.3c0-9.259-8.47-8.627-13.961-17.883l-17.568-36.706s19.915-34.09 36.542-34.09c5.019 0 8.948-1.517 12.085-5.91 1.058-1.481 2.254-3.172 3.039-4.85-4.857-2.46-3.018-7.592-3.018-7.592-.47-.166-.948-.308-1.432-.426-8.942-2.196-13.961-17.098-25.255-17.098 0 0 .504-1.578.907-3.528 7.967 2.296 16.254 4.057 25.08 4.057zm-41.821 6.378c-1.794 5.472-5.555 23.148-13.236 23.148-11.61 0-19.391-24.716-38.058-24.716-5.49 0-12.548 2.981-12.548 2.981S57.306 39.94 78.954 39.94c11.456 0 22.683 4.041 34.463 7.845-3.635 3.854-7.311 9.246-8.519 12.957z" fill="#FF8B69" stroke="#131314" stroke-linecap="round" stroke-linejoin="round"/><path d="M154.039 75.592s17.778-9.127 31.372 8.299M153.098 72.247l24.995-20.184" stroke="#fff" stroke-linecap="round" stroke-linejoin="round"/><path d="M103.894 89.755a5.908 5.908 0 0 0-5.907 5.907v76.871a5.907 5.907 0 0 0 5.907 5.909h53.858a5.908 5.908 0 0 0 5.907-5.909v-64.574l-18.196-18.204h-41.569z" fill="#7FCFFF" stroke="#131314" stroke-linecap="round" stroke-linejoin="round"/><path d="M151.38 107.903h12.287l-18.196-18.194v12.287a5.907 5.907 0 0 0 5.909 5.907z" fill="#fff" stroke="#131314" stroke-linecap="round" stroke-linejoin="round"/><path d="M128.698 70.607a1.289 1.289 0 1 0 0-2.578 1.289 1.289 0 0 0 0 2.578z" fill="#131314" stroke="#131314" stroke-linecap="round" stroke-linejoin="round"/><path d="M82.143 131.959l32.627 46.431h15.53c0-9.259-8.47-8.627-13.961-17.883l-21.811-46.122" fill="#FF8B69"/><path d="M82.143 131.959l32.627 46.431h15.53c0-9.259-8.47-8.627-13.961-17.883l-21.811-46.122" stroke="#131314" stroke-linecap="round" stroke-linejoin="round"/><path d="M147.078 78.207s-11.757 6.796-11.757 25.411M145.463 76.952s-19.031 4.074-24.731 28.333" stroke="#fff" stroke-linecap="round" stroke-linejoin="round"/><path d="M145.987 70.938c-8.942-2.196-13.961-17.098-25.255-17.098 0 0 .503-1.578.907-3.528" stroke="#131314" stroke-linecap="round" stroke-linejoin="round"/><path d="M104.898 60.743c1.217-3.704 4.893-9.104 8.519-12.963 2.613-2.778 5.204-4.761 6.852-4.761 2.424 0 2.037 4.137 1.378 7.296l-.908 3.528s3.98-.465 8.519 3.109" fill="#FF8B69"/><path d="M104.898 60.743c1.217-3.704 4.893-9.104 8.519-12.963 2.613-2.778 5.204-4.761 6.852-4.761 2.424 0 2.037 4.137 1.378 7.296l-.908 3.528s3.98-.465 8.519 3.109" stroke="#131314" stroke-linecap="round" stroke-linejoin="round"/><path d="M128.021 56.067c-4.004-2.608-7.289-2.223-7.289-2.223l.907-3.533.041-.206c2.606-2.351 5.817-4.946 7.304-4.946 2.302.002 1.205 5.495-.963 10.908z" fill="#3C4043" stroke="#131314" stroke-linecap="round" stroke-linejoin="round"/><path d="M11.713 178.391H166.38" stroke="#7FCFFF" stroke-linecap="round" stroke-linejoin="round"/></svg>