<svg xmlns="http://www.w3.org/2000/svg" viewBox="0 0 200 200" fill="none"><path d="M186.386 154.752l-20.739-19.882a5.208 5.208 0 0 0-7.363.156l-19.882 20.739a5.208 5.208 0 0 0 .156 7.363l20.739 19.881a5.208 5.208 0 0 0 7.363-.155l19.881-20.74a5.206 5.206 0 0 0-.155-7.362z" fill="#F2B8B5" stroke="#F2B8B5" stroke-linecap="round" stroke-linejoin="round"/><path d="M21.189 70.124L61.209 59.4c5.483-1.469 7.319-8.322 3.306-12.335L35.217 17.767c-4.013-4.013-10.867-2.178-12.336 3.305l-10.724 40.02c-1.468 5.484 3.549 10.5 9.032 9.032z" fill="#6DD58C" stroke="#131314" stroke-linecap="round" stroke-linejoin="round"/><path d="M98.978 67.763l-5.176-10.648a4.355 4.355 0 0 0-3.915-2.45h-42.25a4.351 4.351 0 0 0-4.352 4.352v95.541a4.307 4.307 0 0 0 4.311 4.309h125.267a4.307 4.307 0 0 0 4.307-4.309V72.072a4.31 4.31 0 0 0-4.309-4.309H98.978z" fill="#7FCFFF" stroke="#131314" stroke-linecap="round" stroke-linejoin="round"/><path d="M93.057 62.852l-5.185-10.648a4.356 4.356 0 0 0-3.915-2.45h-42.24a4.352 4.352 0 0 0-4.352 4.352v95.541a4.312 4.312 0 0 0 4.309 4.309h125.269a4.31 4.31 0 0 0 4.301-4.309V67.161a4.31 4.31 0 0 0-4.309-4.309H93.057z" fill="#7FCFFF" stroke="#131314" stroke-linecap="round" stroke-linejoin="round"/><path d="M101.95 57.617l-5.176-10.648a4.352 4.352 0 0 0-3.913-2.45H35.796a4.353 4.353 0 0 0-4.352 4.353v95.539a4.313 4.313 0 0 0 2.66 3.983 4.303 4.303 0 0 0 1.65.328h125.268a4.306 4.306 0 0 0 4.309-4.311V61.928a4.303 4.303 0 0 0-2.659-3.983 4.312 4.312 0 0 0-1.65-.328H101.95z" fill="#131314" stroke="#7FCFFF" stroke-linecap="round" stroke-linejoin="round"/><path d="M145.272 134.511c-2.582-4.074-5.513-7.75-8.165-10.322 3.687-1.57 7.068-1.574 8.889.335 1.987 2.104 1.565 5.987-.724 9.987z" fill="#444746" stroke="#131314" stroke-linecap="round" stroke-linejoin="round"/><path d="M131.996 73.947c-3.639-10.37-21.482 1.035-27.376-10.063-1.219-2.299-2.098-4.63-3.048-6.704a5 5 0 1 0-2.019-3.6c-1.75-2.365-4.2-3.804-8.596-3.437-9.228.768-11.287 9.968-11.287 9.968 4.102-.605 4.128-1.8 5.926-2.418 2.778-.954 2.99 4.546 3.728 6.331 1.144 2.778 2.985 1.667 4.313-1.833 1.235-3.25 6.379-3.004 4.457 4.26-1.296 4.916-5.063 17.705 1.16 16.38 2.842-.603 6.953-4.258 9.966-1.942 5.02 3.869 7.267 12.12 7.267 12.12s18.251-11.244 15.509-19.063z" fill="#FFDF99" stroke="#131314" stroke-linecap="round" stroke-linejoin="round"/><path d="M151.752 148.721H84.991v-16.587l51.179-8.821c5.774 5.162 13.339 16.288 15.582 25.408z" fill="#7FCFFF" stroke="#7FCFFF" stroke-linecap="round" stroke-linejoin="round"/><path d="M45.939 136.515c-4.474 11.189 2.46 12.207 2.46 12.207h90.438s-1.415-2.026-5.996-2.407c-46.852-3.98-66.963-17.137-66.963-17.137s17.61-43.148 11.231-47.732c-2.35-1.552-6.153-1.46-9.966 6.969-5.541 12.227-15.754 34.477-21.204 48.1z" fill="#F2D9C4" stroke="#131314" stroke-linecap="round" stroke-linejoin="round"/><path d="M145.061 123.726c-10.248-1.956-15.111 9.655-43.704 15.213-8.083 1.57-30.37-14.387-29.048-28.174 1.567-16.358 4.802-29.326 4.802-29.326l2.115 1.546c-.681 10.585-.528 25.417 5.769 26.111 6.594 1.208 10.157-4.783 16.959-27.316 2.183-1.17 4.241-2.89 6.283-4.673l17.945 26.969s6.988 13.854 18.879 19.65z" fill="#fff" stroke="#131314" stroke-linecap="round" stroke-linejoin="round"/><path d="M101.95 81.781c-6.802 22.534-10.37 28.519-16.96 27.317-.064 0-.127-.015-.185-.026-.057-.011-.133-.022-.198-.039l-.128-.029a4.196 4.196 0 0 1-1.381-.652c-4.422-3.232-4.476-15.973-3.87-25.37a466.364 466.364 0 0 0 4.259 3.036l.628-3.489.976-5.423c-11.545 2.364-7.678-11.008-5.423-17 4.104-.604 4.13-1.8 5.926-2.419 2.778-.952 2.99 4.548 3.726 6.331 1.146 2.778 2.987 1.667 4.315-1.831 1.235-3.252 6.38-3.006 4.457 4.26-.99 3.747-3.413 12.07-1.751 15.229.516.983 1.43 1.466 2.909 1.152a9.904 9.904 0 0 0 2.7-1.047z" fill="#F2D9C4" stroke="#131314" stroke-linecap="round" stroke-linejoin="round"/><path d="M126.181 104.076c-1.38 1.27-5.124 2.791-8.148 2.059-6.267 17.124-9.539 36.213-17.274 42.58H87.661c-8.245-4.445-19.137-15.233-34.037-30.015-.778 1.541-.45.911-3.936 8.787-3.91-2.141 2.45-23.322 8.978-20.37C66.596 111.989 91 134.058 91 134.058s12.351-38.649 17.233-56.95c.294-.295 12.222-10.03 17.948 26.968z" fill="#F2D9C4" stroke="#131314" stroke-linecap="round" stroke-linejoin="round"/><path d="M120.115 99.087l-2.078 7.054M64.117 129.229l-7.787-1.328" stroke="#131314" stroke-linecap="round" stroke-linejoin="round"/><path d="M86.93 64.56a.406.406 0 1 0 0-.812.406.406 0 0 0 0 .811zM80.692 64.56a.406.406 0 1 0 0-.812.406.406 0 0 0 0 .811z" fill="#131314" stroke="#131314" stroke-linecap="round" stroke-linejoin="round"/><path d="M85.09 77.11c2.516-.782 3.38-1.23 4.658-2.213l-6.26 11.125 1.603-8.913z" fill="#444746" stroke="#444746" stroke-linecap="round" stroke-linejoin="round"/><path d="M130.774 148.722s.37-1.482-2.06-1.919c-4.364-.785-6.757-1.633-6.757-1.633M135.619 148.771s.37-1.482-2.058-1.917c-4.365-.785-6.07-1.009-6.07-1.009M83.218 63.748c0 2.84-1.965 5.789-1.965 5.789h1.965M22.881 21.072l-10.723 40.02" stroke="#131314" stroke-linecap="round" stroke-linejoin="round"/><path d="M154.093 15.895H136.03a4.067 4.067 0 0 0-4.067 4.066v18.063a4.067 4.067 0 0 0 4.067 4.067h18.063a4.067 4.067 0 0 0 4.066-4.067V19.961a4.067 4.067 0 0 0-4.066-4.066z" fill="#FFDF99" stroke="#FFDF99" stroke-linecap="round" stroke-linejoin="round"/><path d="M31.444 57.617v86.795a4.308 4.308 0 0 0 4.31 4.311h125.268a4.318 4.318 0 0 0 3.982-2.662 4.3 4.3 0 0 0 .327-1.649V61.928" stroke="#7FCFFF" stroke-linecap="round" stroke-linejoin="round"/></svg>