<?xml version='1.0' encoding='UTF-8'?><!DOCTYPE svg PUBLIC "-//W3C//DTD SVG 1.1//EN" "http://www.w3.org/Graphics/SVG/1.1/DTD/svg11.dtd"><svg xmlns="http://www.w3.org/2000/svg" xmlns:xlink="http://www.w3.org/1999/xlink" version="1.1" x="0" y="0" width="24px" height="665px" viewBox="0 0 24 665" preserveAspectRatio="none"><g transform="translate(0,596)"><defs>
  </defs>
  <polygon points="6,10.5 12.5,17 14,15.5 9,10.5 14,5.5 12.5,4 "/>
  <rect opacity="0" fill="#4387FD" width="21" height="21"/>
</g><g transform="translate(0,440)"><defs>
  </defs>
  <polygon points="6,10.5 12.5,17 14,15.5 9,10.5 14,5.5 12.5,4" fill="#ffffff"/>
  <rect opacity="0" fill="#4387FD" width="21" height="21"/>
</g><g transform="translate(0,66)"><polygon points="10.5,11.914 13.5,14.914 14.914,13.5 11.914,10.5 14.914,7.5 13.5,6.086 10.5,9.086 7.5,6.086 6.085,7.5 9.085,10.5 6.085,13.5 7.5,14.914 " id="polygon6" style="opacity:0.5" transform="translate(-2.9561186,-3.5084746)"/>
<rect width="21" height="21" id="rect8" x="0" y="-6" style="opacity:0;fill:#4387fd"/>
</g><g transform="translate(0,461)"><path d="M10.7249 3L15.2999 11.25L13.7249 14.25H4.2749L2.6999 11.25L7.2749 3H10.7249ZM10.7249 1.5H7.2749C6.7499 1.5 6.2249 1.8 5.9999 2.25L1.3499 10.5C1.1249 10.95 1.1249 11.475 1.3499 11.925L2.9249 14.925C3.2249 15.45 3.7499 15.75 4.2749 15.75H13.7249C14.2499 15.75 14.7749 15.45 15.0749 14.925L16.6499 11.925C16.8749 11.475 16.8749 10.95 16.6499 10.5L12.0749 2.25C11.7749 1.8 11.2499 1.5 10.7249 1.5Z"/>
<path d="M8.3249 5.55L4.9499 11.4L5.4749 12.375H12.5999L13.1249 11.4L9.6749 5.55H8.3249ZM6.9749 10.875L8.9999 7.275L11.0249 10.875H6.9749Z"/>
</g><g transform="translate(0,219)"><defs>
  </defs>
  <path d="M17.25,6h-6.938l-1.78-1.779C8.396,4.084,8.209,4,8,4H2.75C2.336,4,2,4.336,2,4.75v12.5C2,17.664,2.336,18,2.75,18h14.5 c0.414,0,0.75-0.336,0.75-0.75V6.75C18,6.336,17.664,6,17.25,6z M16,13h-3v3h-1v-3H9v-1h3V9h1v3h3V13z"/>
  <rect opacity="0" fill="#4387FD" width="21" height="21"/>
</g><g transform="translate(0,174)"><defs>
  </defs>
  <polygon points="15,10.5 8.5,17 7,15.5 12,10.5 7,5.5 8.5,4 "/>
  <rect opacity="0" fill="#4387FD" width="21" height="21"/>
</g><g transform="translate(0,327)"><defs>
  </defs>
  <polygon points="15,10.5 8.5,17 7,15.5 12,10.5 7,5.5 8.5,4" fill="#ffffff"/>
  <rect opacity="0" fill="#4387FD" width="21" height="21"/>
</g><g transform="translate(0,617)"><path d="M22.56 12.25c0-.78-.07-1.53-.2-2.25H12v4.26h5.92c-.26 1.37-1.04 2.53-2.21 3.31v2.77h3.57c2.08-1.92 3.28-4.74 3.28-8.09z" fill="#4285F4"/><path d="M12 23c2.97 0 5.46-.98 7.28-2.66l-3.57-2.77c-.98.66-2.23 1.06-3.71 1.06-2.86 0-5.29-1.93-6.16-4.53H2.18v2.84C3.99 20.53 7.7 23 12 23z" fill="#34A853"/><path d="M5.84 14.09c-.22-.66-.35-1.36-.35-2.09s.13-1.43.35-2.09V7.07H2.18C1.43 8.55 1 10.22 1 12s.43 3.45 1.18 4.93l2.85-2.22.81-.62z" fill="#FBBC05"/><path d="M12 5.38c1.62 0 3.06.56 4.21 1.64l3.15-3.15C17.45 2.09 14.97 1 12 1 7.7 1 3.99 3.47 2.18 7.07l3.66 2.84c.87-2.6 3.3-4.53 6.16-4.53z" fill="#EA4335"/><path d="M1 1h22v22H1z" fill="none"/></g><g transform="translate(0,572)"><g id="Header">
  <g>
    <rect x="-618" y="-1208" fill="none" width="1400" height="3600"/>
  </g>
</g>
<g id="Label">
</g>
<g id="Icon">
  <g>
    <g>
      <rect fill="none" width="24" height="24"/>
    </g>
    <path d="M16,11c1.7,0,3-1.3,3-3c0-1.7-1.3-3-3-3c-1.7,0-3,1.3-3,3C13,9.7,14.3,11,16,11z M8,11c1.7,0,3-1.3,3-3c0-1.7-1.3-3-3-3       C6.3,5,5,6.3,5,8C5,9.7,6.3,11,8,11z M8,13c-2.3,0-7,1.2-7,3.5V19h14v-2.5C15,14.2,10.3,13,8,13z M16,13c-0.3,0-0.6,0-1,0.1       c1.2,0.8,2,2,2,3.4V19h6v-2.5C23,14.2,18.3,13,16,13z"/>
  </g>
</g>
<g id="Grid" display="none">
  <g display="inline"/>
</g>
</g><g transform="translate(0,479)"><g id="Header">
  <g>
    <rect x="-618" y="-1208" fill="none" width="1400" height="3600"/>
  </g>
</g>
<g id="Label">
</g>
<g id="Icon">
  <g>
    <g>
      <rect fill="none" width="24" height="24"/>
    </g>
    <path d="M16,11c1.7,0,3-1.3,3-3c0-1.7-1.3-3-3-3c-1.7,0-3,1.3-3,3C13,9.7,14.3,11,16,11z M8,11c1.7,0,3-1.3,3-3c0-1.7-1.3-3-3-3       C6.3,5,5,6.3,5,8C5,9.7,6.3,11,8,11z M8,13c-2.3,0-7,1.2-7,3.5V19h14v-2.5C15,14.2,10.3,13,8,13z M16,13c-0.3,0-0.6,0-1,0.1       c1.2,0.8,2,2,2,3.4V19h6v-2.5C23,14.2,18.3,13,16,13z" fill="#ffffff"/>
  </g>
</g>
<g id="Grid" display="none">
  <g display="inline"/>
</g>
</g><g transform="translate(0,0)"><path d="M0 0h24v24H0z" fill="none"/>
    <path d="M12 2C6.48 2 2 6.48 2 12s4.48 10 10 10 10-4.48 10-10S17.52 2 12 2zm1 17h-2v-2h2v2zm2.07-7.75l-.9.92C13.45 12.9 13 13.5 13 15h-2v-.5c0-1.1.45-2.1 1.17-2.83l1.24-1.26c.37-.36.59-.86.59-1.41 0-1.1-.9-2-2-2s-2 .9-2 2H8c0-2.21 1.79-4 4-4s4 1.79 4 4c0 .88-.36 1.68-.93 2.25z"/>
</g><g transform="translate(0,416)"><path d="M0 0h24v24H0z" fill="none"/>
    <path d="M12 2C6.48 2 2 6.48 2 12s4.48 10 10 10 10-4.48 10-10S17.52 2 12 2zm1 17h-2v-2h2v2zm2.07-7.75l-.9.92C13.45 12.9 13 13.5 13 15h-2v-.5c0-1.1.45-2.1 1.17-2.83l1.24-1.26c.37-.36.59-.86.59-1.41 0-1.1-.9-2-2-2s-2 .9-2 2H8c0-2.21 1.79-4 4-4s4 1.79 4 4c0 .88-.36 1.68-.93 2.25z" fill="#ffffff"/>
</g><g transform="translate(0,264)"><defs>
</defs>
<path opacity="0.5" d="M16.5,3h-12C3.672,3,3,3.672,3,4.5v12C3,17.328,3.672,18,4.5,18h12c0.828,0,1.5-0.672,1.5-1.5v-12  C18,3.672,17.328,3,16.5,3z M16,15H5v-1.8l3.5-3.9l2.99,3.332L13.5,10.3l2.5,2.9V15z"/>
<rect opacity="0" fill="#4387FD" width="21" height="21"/>
</g><g transform="translate(0,48)"><path d="M0 0h18v18H0z" fill="none"/>
    <path d="M14.25 14.25H3.75V3.75h5.25V2.25H3.75c-.83 0-1.5 .67-1.5 1.5v10.5c0 .83 .67 1.5 1.5 1.5h10.5c.83 0 1.5-.67 1.5-1.5v-5.25h-1.5v5.25zM10.5 2.25v1.5h2.69l-7.37 7.37 1.06 1.06L14.3 4.81V7.5h1.5V2.25h-5.25z"/>
</g><g transform="translate(0,309)"><path d="M0 0h18v18H0z" fill="none"/>
    <path d="M14.25 14.25H3.75V3.75h5.25V2.25H3.75c-.83 0-1.5 .67-1.5 1.5v10.5c0 .83 .67 1.5 1.5 1.5h10.5c.83 0 1.5-.67 1.5-1.5v-5.25h-1.5v5.25zM10.5 2.25v1.5h2.69l-7.37 7.37 1.06 1.06L14.3 4.81V7.5h1.5V2.25h-5.25z" fill="#ffffff"/>
</g><g transform="translate(0,364)"><path d="M0 0h16v16H0z" fill="none"/>
    <path d="M13.333 7.333H5.222l3.7233-3.7233L8 2.67 2.67 8l5.333 5.333 0.9433-0.9433L5.22 8.667H13.333v-1.333z"/>
</g><g transform="translate(0,348)"><path d="M0 0h16v16H0z" fill="none"/>
    <path d="M8 2.667l-0.943 0.943L10.78 7.333H2.667v1.333h8.113L7.056 12.39 8 13.333l5.333-5.333z"/>
</g><g transform="translate(0,24)"><path d="M19,2H5C3.9,2,3,2.9,3,4v16c0,1.1,0.9,2,2,2h14c1.1,0,2-0.9,2-2V4C21,2.9,20.1,2,19,2z M19,20H5v-1h14V20z M19,17H5V4h14V17 z M13.12,6h-2.24c-0.33,0-0.61,0.19-0.79,0.47l-2.94,5.14C7,11.89,7,12.22,7.14,12.5l1.12,1.96c0.14,0.28,0.47,0.47,0.79,0.47h5.98 c0.33,0,0.61-0.19,0.79-0.47l1.12-1.96c0.14-0.28,0.14-0.61,0-0.89l-3.04-5.14C13.78,6.19,13.45,6,13.12,6z M10.18,12.07l1.87-3.18 l1.82,3.18H10.18z"/>
</g><g transform="translate(0,126)"><path d="M19,2H5C3.9,2,3,2.9,3,4v16c0,1.1,0.9,2,2,2h14c1.1,0,2-0.9,2-2V4C21,2.9,20.1,2,19,2z M19,20H5v-1h14V20z M19,17H5V4h14V17 z M13.12,6h-2.24c-0.33,0-0.61,0.19-0.79,0.47l-2.94,5.14C7,11.89,7,12.22,7.14,12.5l1.12,1.96c0.14,0.28,0.47,0.47,0.79,0.47h5.98 c0.33,0,0.61-0.19,0.79-0.47l1.12-1.96c0.14-0.28,0.14-0.61,0-0.89l-3.04-5.14C13.78,6.19,13.45,6,13.12,6z M10.18,12.07l1.87-3.18 l1.82,3.18H10.18z" fill="#ffffff"/>
</g><g transform="translate(0,195)"><path d="M19,2H5C3.9,2,3,2.9,3,4v16c0,1.1,0.9,2,2,2h14c1.1,0,2-0.9,2-2V4C21,2.9,20.1,2,19,2z M19,20H5v-1h14V20z M19,17H5V4h14V17 z M13.12,6h-2.24c-0.33,0-0.61,0.19-0.79,0.47l-2.94,5.14C7,11.89,7,12.22,7.14,12.5l1.12,1.96c0.14,0.28,0.47,0.47,0.79,0.47h5.98 c0.33,0,0.61-0.19,0.79-0.47l1.12-1.96c0.14-0.28,0.14-0.61,0-0.89l-3.04-5.14C13.78,6.19,13.45,6,13.12,6z M10.18,12.07l1.87-3.18 l1.82,3.18H10.18z"/>
</g><g transform="translate(0,150)"><path d="M19,2H5C3.9,2,3,2.9,3,4v16c0,1.1,0.9,2,2,2h14c1.1,0,2-0.9,2-2V4C21,2.9,20.1,2,19,2z M19,20H5v-1h14V20z M19,17H5V4h14V17 z M13.12,6h-2.24c-0.33,0-0.61,0.19-0.79,0.47l-2.94,5.14C7,11.89,7,12.22,7.14,12.5l1.12,1.96c0.14,0.28,0.47,0.47,0.79,0.47h5.98 c0.33,0,0.61-0.19,0.79-0.47l1.12-1.96c0.14-0.28,0.14-0.61,0-0.89l-3.04-5.14C13.78,6.19,13.45,6,13.12,6z M10.18,12.07l1.87-3.18 l1.82,3.18H10.18z" fill="#ffffff"/>
</g><g transform="translate(0,380)"><g>
  <path fill="none" d="M0,0h12v12H0V0z"/>
  <path d="M10,10H2V2h4V1H2C1.445,1,1,1.45,1,2v8c0,0.55,0.445,1,1,1h8c0.55,0,1-0.45,1-1V6h-1V10z"/>
  <polygon points="7,1 7,2 9.295,2 3.147,8.146 3.853,8.854 10,2.705 10,5 11,5 11,1  "/>
</g>
</g><g transform="translate(0,105)"><path d="m 6,6 0,9 c 0,2.209 1.791,4 4,4 2.209,0 4,-1.791 4,-4 l 0,-8 -0.945,0 0,8.1 c 0,1.688 -1.367,3 -3.055,3 -1.688,0 -3.055,-1.312 -3.055,-3 l 0,-9.1 c 0,-1.135 0.92,-2.1 2.055,-2.1 1.135,0 2.055,0.965 2.055,2.1 l 0,7.1 c 0,0.583 -0.473,0.955 -1.055,0.955 -0.582,0 -1.055,-0.372 -1.055,-0.955 L 8.945,7 8,7 8,13 c 0,1.104 0.895,1.9 2,1.9 1.104,0 2,-0.796 2,-1.9 L 12,6 C 12,4.344 10.656,3 9,3 7.344,3 6,4.344 6,6 z" id="path6"/>
<rect opacity="0" fill="#4387FD" width="21" height="21" id="rect8"/>
</g><g transform="translate(0,641)"><path d="M19 13h-6v6h-2v-6H5v-2h6V5h2v6h6v2z"/>
    <path d="M0 0h24v24H0z" fill="none"/>
</g><g transform="translate(0,240)"><path d="M19 13h-6v6h-2v-6H5v-2h6V5h2v6h6v2z" fill="#ffffff"/>
    <path d="M0 0h24v24H0z" fill="none"/>
</g><g transform="translate(0,527)"><defs>
</defs>
<path d="M16.742,15.502L14,12.758h-0.643l-0.551-0.551C13.54,11.338,14,10.229,14,9c0-2.761-2.238-5-5-5S4,6.239,4,9  c0,2.762,2.238,5,5,5c1.229,0,2.338-0.459,3.208-1.193l0.552,0.55V14l2.742,2.742c0.342,0.344,0.896,0.344,1.24,0.002  C17.086,16.4,17.086,15.846,16.742,15.502z M9,12.25c-1.795,0-3.25-1.455-3.25-3.25S7.205,5.75,9,5.75c1.797,0,3.25,1.455,3.25,3.25  S10.797,12.25,9,12.25z"/>
<rect opacity="0" fill="#4387FD" width="21" height="21"/>
</g><g transform="translate(0,548)"><polygon fill="#000000" points="9,5 12,1.5 15,5 " id="polygon3" style="filter:url(#filter3022)"/>
<polygon fill="#000000" points="15,19 12,22.5 9,19 " id="polygon5" style="filter:url(#filter3016)"/>
<rect fill="none" width="24" height="24" id="rect7"/>
<rect x="2" y="2" fill="none" width="20" height="20" id="rect9" style="filter:url(#filter3010)"/>
<g id="g11" style="filter:url(#filter3004)">
<path fill="#000000" d="M10.216,14.844h-3.51L6.026,17H4L7.441,7h2.053l3.428,10h-2.026L10.216,14.844z M7.201,13.271h2.52   L8.484,9.342H8.443L7.201,13.271z" id="path13"/>
<path fill="#000000" d="M15.875,15.455h4.891V17h-7.314v-1.049l4.752-7.406h-4.746V7h7.191v1.003L15.875,15.455z" id="path15"/>
</g>
</g><g transform="translate(0,392)"><path d="M0 0h24v24H0z" fill="none"/>
    <path d="M12 17.27L18.18 21l-1.64-7.03L22 9.24l-7.19-.61L12 2 9.19 8.63 2 9.24l5.46 4.73L5.82 21z"/>
    <path d="M0 0h24v24H0z" fill="none"/>
</g><g transform="translate(0,503)"><path d="M0 0h24v24H0z" fill="none"/>
    <path d="M12 17.27L18.18 21l-1.64-7.03L22 9.24l-7.19-.61L12 2 9.19 8.63 2 9.24l5.46 4.73L5.82 21z" fill="#ffffff"/>
    <path d="M0 0h24v24H0z" fill="none"/>
</g><g transform="translate(0,285)"><path d="M19 2H5c-1.1 0-2 .9-2 1.99V17h18V3.99C21 2.89 20.11 2 19 2zm-4.38 4c.97 0 1.75.79 1.75 1.75S15.6 9.5 14.62 9.5c-.96 0-1.75-.79-1.75-1.75S13.65 6 14.62 6zM9.38 6c.97 0 1.75.79 1.75 1.75S10.35 9.5 9.38 9.5c-.96 0-1.75-.79-1.75-1.75S8.41 6 9.38 6zm4.37 7H5v-.26c0-1.46 2.91-2.19 4.38-2.19s4.38.73 4.38 2.19V13zM19 13h-3.94v-.26c0-.91-.48-1.61-1.17-2.14.26-.03.52-.05.73-.05 1.46 0 4.38.73 4.38 2.19V13zM3 20.01c0 1.1.89 1.99 2 1.99h14c1.1 0 2-.9 2-1.99V18H3v2.01zM18 19c.55 0 1 .45 1 1s-.45 1-1 1-1-.45-1-1 .45-1 1-1z"/>
    <path fill="none" d="M0 0h24v24H0z"/>
</g><g transform="translate(0,81)"><path d="M19 2H5c-1.1 0-2 .9-2 1.99V17h18V3.99C21 2.89 20.11 2 19 2zm-4.38 4c.97 0 1.75.79 1.75 1.75S15.6 9.5 14.62 9.5c-.96 0-1.75-.79-1.75-1.75S13.65 6 14.62 6zM9.38 6c.97 0 1.75.79 1.75 1.75S10.35 9.5 9.38 9.5c-.96 0-1.75-.79-1.75-1.75S8.41 6 9.38 6zm4.37 7H5v-.26c0-1.46 2.91-2.19 4.38-2.19s4.38.73 4.38 2.19V13zM19 13h-3.94v-.26c0-.91-.48-1.61-1.17-2.14.26-.03.52-.05.73-.05 1.46 0 4.38.73 4.38 2.19V13zM3 20.01c0 1.1.89 1.99 2 1.99h14c1.1 0 2-.9 2-1.99V18H3v2.01zM18 19c.55 0 1 .45 1 1s-.45 1-1 1-1-.45-1-1 .45-1 1-1z" fill="#ffffff"/>
    <path fill="none" d="M0 0h24v24H0z"/>
</g></svg>